HIERARCHY
ROOT Bip001_Pelvis
{
  OFFSET -22.4848 91.2454 47.947
  CHANNELS 6 Xposition Yposition Zposition Zrotation Xrotation Yrotation
  JOINT Bip001_Spine
  {
    OFFSET 1.44608e-005 10.4157 -0.0118244
    CHANNELS 3 Zrotation Xrotation Yrotation
    JOINT Bip001_L_Thigh
    {
      OFFSET 11.2582 -10.4157 0.0118432
      CHANNELS 3 Zrotation Xrotation Yrotation
      JOINT Bip001_L_Calf
      {
        OFFSET -0.720717 -44.8687 0.366937
        CHANNELS 3 Zrotation Xrotation Yrotation
        JOINT Bip001_L_Foot
        {
          OFFSET -0.664439 -41.3745 -3.62995
          CHANNELS 3 Zrotation Xrotation Yrotation
          JOINT Bip001_L_Toe0
          {
            OFFSET 0.0541048 -10.4146 13.4033
            CHANNELS 3 Zrotation Xrotation Yrotation
            End Site
            {
              OFFSET -1.04503e-005 0 7.70137
            }
          }
        }
      }
    }
    JOINT Bip001_R_Thigh
    {
      OFFSET -11.2582 -10.4156 0.0118122
      CHANNELS 3 Zrotation Xrotation Yrotation
      JOINT Bip001_R_Calf
      {
        OFFSET 0.72059 -44.8687 0.36676
        CHANNELS 3 Zrotation Xrotation Yrotation
        JOINT Bip001_R_Foot
        {
          OFFSET 0.664321 -41.3745 -3.62979
          CHANNELS 3 Zrotation Xrotation Yrotation
          JOINT Bip001_R_Toe0
          {
            OFFSET -0.05417 -10.4146 13.4033
            CHANNELS 3 Zrotation Xrotation Yrotation
            End Site
            {
              OFFSET -1.04873e-005 0 7.70137
            }
          }
        }
      }
    }
    JOINT Bip001_Spine1
    {
      OFFSET 1.90638e-005 14.8539 1.10727
      CHANNELS 3 Zrotation Xrotation Yrotation
      JOINT Bip001_Spine2
      {
        OFFSET 2.28934e-005 14.7848 -1.7233
        CHANNELS 3 Zrotation Xrotation Yrotation
        JOINT Bip001_Neck
        {
          OFFSET 2.24514e-005 15.6905 -0.498826
          CHANNELS 3 Zrotation Xrotation Yrotation
          JOINT Bip001_L_Clavicle
          {
            OFFSET 6.17691 -0.000591152 0.00852867
            CHANNELS 3 Zrotation Xrotation Yrotation
            JOINT Bip001_L_UpperArm
            {
              OFFSET 11.773 -0.0611878 0.00197697
              CHANNELS 3 Zrotation Xrotation Yrotation
              JOINT Bip001_L_Forearm
              {
                OFFSET 26.4515 0.0817566 -2.1958
                CHANNELS 3 Zrotation Xrotation Yrotation
                JOINT Bip001_L_Hand
                {
                  OFFSET 32.8678 0.156744 1.67112
                  CHANNELS 3 Zrotation Xrotation Yrotation
                  JOINT Bip001_L_Finger0
                  {
                    OFFSET 6.16269 -2.25227 6.0167
                    CHANNELS 3 Zrotation Xrotation Yrotation
                    End Site
                    {
                      OFFSET 4.305 -1.46663 0.618144
                    }
                  }
                  JOINT Bip001_L_Finger1
                  {
                    OFFSET 11.2958 -0.718377 -0.201962
                    CHANNELS 3 Zrotation Xrotation Yrotation
                    End Site
                    {
                      OFFSET 6.31953 -0.405165 -0.0802297
                    }
                  }
                }
              }
            }
          }
          JOINT Bip001_R_Clavicle
          {
            OFFSET -6.17691 -0.000574027 0.00851165
            CHANNELS 3 Zrotation Xrotation Yrotation
            JOINT Bip001_R_UpperArm
            {
              OFFSET -11.773 -0.0611516 0.00194365
              CHANNELS 3 Zrotation Xrotation Yrotation
              JOINT Bip001_R_Forearm
              {
                OFFSET -26.4514 0.0822336 -2.19736
                CHANNELS 3 Zrotation Xrotation Yrotation
                JOINT Bip001_R_Hand
                {
                  OFFSET -32.8677 0.156816 1.67144
                  CHANNELS 3 Zrotation Xrotation Yrotation
                  JOINT Bip001_R_Finger0
                  {
                    OFFSET -6.16269 -2.25224 6.01673
                    CHANNELS 3 Zrotation Xrotation Yrotation
                    End Site
                    {
                      OFFSET -4.30499 -1.46661 0.618137
                    }
                  }
                  JOINT Bip001_R_Finger1
                  {
                    OFFSET -11.2957 -0.718342 -0.201995
                    CHANNELS 3 Zrotation Xrotation Yrotation
                    End Site
                    {
                      OFFSET -6.31951 -0.405145 -0.080248
                    }
                  }
                }
              }
            }
          }
          JOINT Bip001_Head
          {
            OFFSET 1.11782e-005 11.4912 2.09908
            CHANNELS 3 Zrotation Xrotation Yrotation
            End Site
            {
              OFFSET 2.95144e-005 21.2823 -2.83069e-005
            }
          }
        }
      }
    }
  }
}
MOTION
Frames:	11
Frame Time:	0.0333333
3.00499 93.253 -1.59273 1.45479 -2.75793 3.44509 -0.0828962 1.07375 0.494295 -1.82283 1.93097 5.59268 -0.00853897 10.4455 -0.20587 -5.41787 7.05057 -17.1924 9.57971e-007 1.31838e-007 -7.22843e-007 -3.32367 -13.5606 -1.25467 -0.0773903 29.3604 0.472861 2.20528 -9.17431 -0.306738 7.37934e-010 -4.26907e-007 -2.12253e-007 -0.150483 2.11629 0.939888 -0.164552 2.11797 0.939915 1.74498 -9.1444 1.33924 -22.7761 7.57824 10.7945 -46.3117 38.6512 -23.097 -0.284106 0.0083722 -2.63021 1.57129 30.4716 -6.39343 -0 -6.36111e-015 -0 4.77083e-015 -3.18056e-015 -1.59028e-015 8.67461 6.50178 -19.6839 54.0455 51.0639 27.3193 0.292478 0.0167964 3.17154 -10.0573 -7.96902 4.70185 -1.59028e-015 0 -6.36111e-015 -4.77083e-015 0 -3.18055e-015 -12.141 12.5372 5.70021 
3.01582 93.2487 -1.5977 1.45479 -2.75793 3.44509 -0.0828962 1.07375 0.494295 -1.82781 1.95586 5.66649 -0.00853897 10.4455 -0.20587 -5.39962 7.08348 -17.2773 9.57971e-007 1.31838e-007 -7.22843e-007 -3.32662 -13.5606 -1.25467 -0.0775934 29.3818 0.472961 2.20528 -9.17431 -0.306738 7.37934e-010 -4.26907e-007 -2.12253e-007 -0.152546 2.11627 0.961871 -0.165363 2.11795 0.961873 1.72577 -9.11523 1.33913 -22.7649 7.55161 10.7914 -46.3378 38.5973 -23.0786 -0.284098 0.00837184 -2.684 1.57419 30.4939 -6.3949 3.18055e-015 3.18055e-015 -1.59028e-015 1.59028e-015 3.18056e-015 -1.59028e-015 8.69281 6.47209 -19.6827 53.9819 51.1443 27.3708 0.292498 0.0167975 3.10103 -10.0225 -7.99468 4.65669 4.77083e-015 9.54166e-015 -3.18055e-015 -1.59028e-015 6.36111e-015 -0 -12.1121 12.5693 5.6822 
3.02663 93.2444 -1.6025 1.45542 -2.77413 3.43804 -0.0828962 1.07375 0.494295 -1.83258 1.98063 5.73256 -0.00853897 10.4455 -0.20587 -5.39082 7.11513 -17.3575 9.57971e-007 1.31838e-007 -7.22843e-007 -3.34368 -13.5599 -1.27122 -0.077797 29.4033 0.473061 2.20528 -9.17431 -0.306738 7.37934e-010 -4.26907e-007 -2.12253e-007 -0.155001 2.11626 0.983677 -0.16617 2.11794 0.983697 1.70569 -9.08574 1.33327 -22.7468 7.52216 10.7834 -46.3692 38.5293 -23.0555 -0.28409 0.00837146 -2.73862 1.57737 30.5183 -6.39652 4.77083e-015 -6.36111e-015 1.59028e-015 3.18055e-015 -6.36111e-015 1.59028e-015 8.7119 6.44294 -19.6796 53.9215 51.2283 27.4271 0.292519 0.0167987 3.0287 -9.98839 -8.01888 4.61274 -3.18055e-015 3.18055e-015 -0 -3.18055e-015 0 -0 -12.0834 12.6016 5.66427 
3.03752 93.2398 -1.60621 1.45601 -2.79113 3.4292 -0.0824084 1.07375 0.50193 -1.83653 2.00272 5.78168 -0.00855501 10.4411 -0.205868 -5.38363 7.13866 -17.4072 9.57971e-007 1.31838e-007 -7.22843e-007 -3.36263 -13.5567 -1.2998 -0.0780692 29.4234 0.47332 2.20461 -9.17529 -0.296499 7.37934e-010 -4.26907e-007 -2.12253e-007 -0.157458 2.1196 1.00446 -0.166968 2.1196 1.0045 1.68509 -9.05504 1.3256 -22.7291 7.49159 10.776 -46.4015 38.4553 -23.0305 -0.284067 0.0086713 -2.79857 1.58234 30.5565 -6.39904 4.77083e-015 3.18055e-015 -1.59028e-015 3.18055e-015 0 -0 8.73049 6.4128 -19.6705 53.8588 51.3112 27.4877 0.292612 0.015487 2.94377 -9.95805 -8.03301 4.57681 -7.95139e-015 0 -3.18055e-015 -6.36111e-015 6.36111e-015 -0 -12.0553 12.6345 5.64666 
3.04845 93.2348 -1.60899 1.45818 -2.80886 3.4209 -0.0818643 1.07375 0.511776 -1.83972 2.02143 5.81813 -0.00856924 10.4372 -0.205865 -5.37828 7.15591 -17.4232 9.57971e-007 1.31838e-007 -7.22843e-007 -3.38109 -13.5534 -1.33221 -0.0783478 29.4443 0.473582 2.20326 -9.1807 -0.272654 7.37934e-010 -4.26907e-007 -2.12253e-007 -0.159882 2.12627 1.02442 -0.167822 2.12625 1.02437 1.66356 -9.0236 1.31804 -22.714 7.46029 10.7684 -46.4324 38.3716 -23.0012 -0.287278 0.00977089 -2.86346 1.58902 30.6078 -6.40244 3.18055e-015 9.54166e-015 -1.59028e-015 1.59028e-015 6.36111e-015 -0 8.75129 6.38185 -19.6657 53.7967 51.3933 27.5523 0.285321 0.0135643 2.84612 -9.93081 -8.03673 4.54832 1.59028e-015 6.36111e-015 -3.18055e-015 1.76556e-031 3.18056e-015 -3.18055e-015 -12.0272 12.6682 5.6291 
3.05959 93.2297 -1.61081 1.46262 -2.82697 3.41263 -0.0813755 1.07374 0.521247 -1.84265 2.04063 5.84515 -0.00858337 10.4333 -0.205862 -5.37502 7.16933 -17.4267 9.57971e-007 1.31838e-007 -7.22843e-007 -3.40006 -13.5501 -1.36652 -0.0786237 29.4647 0.473843 2.20239 -9.18488 -0.245513 7.37934e-010 -4.26907e-007 -2.12253e-007 -0.162172 2.13271 1.04377 -0.168659 2.13322 1.04351 1.64573 -8.9906 1.3103 -22.7029 7.42731 10.761 -46.4666 38.2789 -22.965 -0.293995 0.0108313 -2.93117 1.59649 30.665 -6.40625 -1.59028e-015 3.18055e-015 -1.59028e-015 3.18055e-015 6.36111e-015 -1.59028e-015 8.77463 6.34939 -19.6625 53.7301 51.4758 27.6251 0.275567 0.0116054 2.74727 -9.90757 -8.04028 4.5241 -7.06225e-031 -6.36111e-015 -6.36111e-015 -7.06225e-031 -6.36111e-015 -6.36111e-015 -12.0031 12.7018 5.61344 
3.07115 93.224 -1.61146 1.46671 -2.84589 3.40417 -0.0809293 1.07374 0.53031 -1.84576 2.06372 5.86591 -0.00859807 10.4293 -0.20586 -5.37276 7.18336 -17.4231 9.57971e-007 1.31838e-007 -7.22843e-007 -3.42121 -13.5451 -1.40212 -0.0789396 29.4894 0.474124 2.2021 -9.18831 -0.214807 7.37934e-010 -4.26907e-007 -2.12253e-007 -0.164291 2.13915 1.06258 -0.170258 2.13875 1.06201 1.63477 -8.9563 1.30217 -22.6938 7.39287 10.754 -46.5065 38.1742 -22.9246 -0.301011 0.0118637 -3.00107 1.60448 30.7262 -6.41033 -1.59028e-015 3.18055e-015 1.59028e-015 -3.18055e-015 6.36111e-015 1.59028e-015 8.79596 6.31584 -19.6604 53.6611 51.5629 27.6978 0.265967 0.00980043 2.6514 -9.88969 -8.04707 4.50391 -7.06225e-031 -1.27222e-014 -3.18055e-015 -1.05934e-030 -9.54167e-015 -6.36111e-015 -11.9867 12.7362 5.60128 
3.08285 93.2188 -1.61124 1.46965 -2.86475 3.39566 -0.0805115 1.07374 0.538857 -1.8529 2.08693 5.86933 -0.00861616 10.4244 -0.205856 -5.37434 7.19091 -17.4059 9.57971e-007 1.31838e-007 -7.22843e-007 -3.44371 -13.538 -1.43879 -0.0792303 29.5114 0.474392 2.20192 -9.1909 -0.181801 7.37934e-010 -4.26907e-007 -2.12253e-007 -0.166421 2.14451 1.08057 -0.172567 2.14176 1.07976 1.62648 -8.91989 1.29347 -22.685 7.35641 10.7463 -46.5514 38.0609 -22.8795 -0.308182 0.0128797 -3.07333 1.61845 30.7914 -6.42244 6.36111e-015 -3.18055e-015 -1.59028e-015 6.36111e-015 -6.36111e-015 -1.59028e-015 8.81617 6.27955 -19.6589 53.5903 51.6516 27.7714 0.256597 0.00833941 2.55688 -9.87565 -8.05534 4.48695 -6.36111e-015 0 -6.36111e-015 -6.36111e-015 0 -6.36111e-015 -11.974 12.7699 5.59099 
3.09424 93.2171 -1.61064 1.47234 -2.88149 3.3872 -0.0801126 1.07374 0.547019 -1.86472 2.10762 5.86543 -0.00863777 10.4185 -0.205853 -5.37656 7.19433 -17.3926 9.57971e-007 1.31838e-007 -7.22843e-007 -3.46534 -13.5255 -1.47525 -0.0793413 29.5145 0.474572 2.20108 -9.19098 -0.150196 7.37934e-010 -4.26907e-007 -2.12253e-007 -0.168993 2.14757 1.09746 -0.175164 2.14412 1.09647 1.61753 -8.87964 1.28779 -22.6757 7.31686 10.736 -46.602 37.9428 -22.8308 -0.315625 0.0138905 -3.14736 1.64189 30.8588 -6.44269 3.18055e-015 -6.36111e-015 -3.18055e-015 -8.82782e-032 -3.18056e-015 -1.59028e-015 8.8364 6.23922 -19.6576 53.5171 51.7384 27.8444 0.247644 0.00733466 2.4669 -9.86316 -8.06696 4.47018 -1.59028e-015 3.18055e-015 -0 -1.59028e-015 3.18056e-015 -0 -11.9603 12.7995 5.58061 
3.1053 93.219 -1.60957 1.47468 -2.89639 3.37879 -0.0797191 1.07374 0.554729 -1.88033 2.12665 5.84759 -0.00866355 10.4114 -0.205848 -5.37903 7.19458 -17.3836 9.57971e-007 1.31838e-007 -7.22843e-007 -3.48635 -13.5071 -1.51167 -0.0793777 29.5098 0.474716 2.19948 -9.18549 -0.119453 7.37934e-010 -4.26907e-007 -2.12253e-007 -0.171773 2.14969 1.11338 -0.177783 2.14589 1.11223 1.6072 -8.83538 1.28445 -22.6653 7.27482 10.7216 -46.6587 37.817 -22.7766 -0.323188 0.0149074 -3.22333 1.66745 30.9302 -6.46409 -3.18055e-015 -3.18055e-015 1.59028e-015 -3.18055e-015 -9.54167e-015 -0 8.85577 6.19444 -19.6562 53.4433 51.8261 27.9163 0.239116 0.0064375 2.38182 -9.85291 -8.08288 4.45405 3.18055e-015 -3.18055e-015 -3.18055e-015 1.59028e-015 3.18056e-015 -0 -11.9463 12.8261 5.57041 
3.11647 93.2218 -1.6081 1.47656 -2.90999 3.37088 -0.0793166 1.07374 0.561864 -1.89726 2.14313 5.80584 -0.00868229 10.4063 -0.205845 -5.38331 7.1922 -17.3656 9.57971e-007 1.31838e-007 -7.22843e-007 -3.50619 -13.4878 -1.54827 -0.0793359 29.4968 0.47482 2.19702 -9.1751 -0.0891641 7.37934e-010 -4.26907e-007 -2.12253e-007 -0.174462 2.15112 1.12811 -0.180149 2.14713 1.12689 1.59186 -8.78682 1.28211 -22.6532 7.22928 10.7048 -46.7124 37.6962 -22.7245 -0.330898 0.0159418 -3.30066 1.69577 30.9983 -6.48706 -3.18055e-015 -3.18055e-015 -0 3.18055e-015 0 -1.59028e-015 8.87401 6.14517 -19.6541 53.3801 51.9062 27.9824 0.230483 0.00557755 2.29609 -9.84227 -8.09491 4.43894 4.77083e-015 0 -3.18055e-015 3.18055e-015 0 -0 -11.931 12.8465 5.56028 
